<svg id="ec4VK2YkeSq1" xmlns="http://www.w3.org/2000/svg" xmlns:xlink="http://www.w3.org/1999/xlink" viewBox="0 0 300 300" shape-rendering="geometricPrecision" text-rendering="geometricPrecision"><g transform="matrix(-.889345 0 0 1 286.680355-.000001)"><rect width="309.216333" height="300" rx="15" ry="15" transform="matrix(.8 0 0 1 30 0.000001)" fill="#ff5d5d" stroke-width="0" stroke-linecap="round"/></g><g transform="matrix(.994992 0 0 1.015325 1.12679-43.144466)"><path d="M97.5,171.367653c0-40.796158,33.747655-73.867973,75.37749-73.867973s75.377491,33.071815,75.377491,73.867973-33.747655,73.867974-75.377491,73.867974-75.37749-33.071815-75.37749-73.867974Z" transform="matrix(-1 0 0 1 322.500011-35.308297)" fill="rgba(255,255,255,0.25)" fill-rule="evenodd" stroke-linecap="round" stroke-miterlimit="10"/><ellipse rx="20.100664" ry="19.698126" transform="translate(148.458119 136.059357)" fill="rgba(255,255,255,0.1)" stroke="#ff5d5d" stroke-width="5"/><line x1="-12.492762" y1="10.667331" x2="-52.69409" y2="50.063583" transform="translate(146.47268 141.524052)" fill="none" stroke="#ff5d5d" stroke-width="7"/><line x1="-12.492762" y1="10.667331" x2="-52.69409" y2="50.063583" transform="translate(217.189685 72.860237)" fill="none" stroke="#ff5d5d" stroke-width="7"/><path d="M128.357453,165v0h.207579-.000001" transform="translate(.000002-12.808617)" fill="none" stroke="#3f5787" stroke-width="0.6"/></g></svg>
